<?xml version="1.0" encoding="UTF-8"?>
<!-- Created with Inkscape (http://www.inkscape.org/) -->
<svg width="48" height="15" version="1.1" viewBox="0 0 48 15" xmlns="http://www.w3.org/2000/svg" xmlns:cc="http://creativecommons.org/ns#" xmlns:dc="http://purl.org/dc/elements/1.1/" xmlns:rdf="http://www.w3.org/1999/02/22-rdf-syntax-ns#">
 <metadata>
  <rdf:RDF>
   <cc:Work rdf:about="">
    <dc:format>image/svg+xml</dc:format>
    <dc:type rdf:resource="http://purl.org/dc/dcmitype/StillImage"/>
    <dc:title/>
   </cc:Work>
  </rdf:RDF>
 </metadata>
 <g transform="translate(0,-199.8)">
  <g transform="scale(1.0357 .96557)" fill="#4e3d38" stroke-width=".11419" aria-label="Lisa Greene">
   <path d="m0.96383 221.5q-0.23447 0.10658-0.4263 0-0.19184-0.10657-0.12789-0.34104 0.063945-0.25578 0.4263-0.72472 0.36236-0.44761 0.78866-0.80997l0.29841-0.2771 0.12789-0.40498q0.40499-1.1723 0.87392-4.668 0.40499-3.0907 0.4263-4.4762 0.04263-1.1297-0.063945-1.1297-0.04263 0-0.063945-0.064-0.021315-0.0853 0-0.12789 0.04263-0.0853 0.14921 0.0213 0.2771 0.21315 0.31973 1.215 0.04263 1.0231-0.31973 3.8154-0.44762 3.7301-0.78866 5.0304-0.10658 0.40499-0.10658 0.42631 0 0 0.021315-0.0213 0.021315 0 0.063945-0.0426 0.063945-0.0213 0.12789-0.0426 1.3855-0.76734 4.0072-1.4281 2.8989-0.72472 3.858-0.57551 0.34104 0.0853 0.34104 0.17052-0.12789 0.12789-1.5134 0.4263-1.8544 0.40499-2.8349 0.63946-0.9805 0.25578-2.1741 0.68208-1.1936 0.4263-1.961 0.93787l-0.31973 0.21315-0.17052 0.31972q-0.55419 1.0231-0.95918 1.2363z"/>
   <path d="m7.6269 213.57q-0.38367 0.25578-0.46893 0.1492-0.10658-0.10657 0-0.21315 0.12789-0.0853 0.38367-0.21315 0.2771-0.14921 0.51156-0.23447 0.23447-0.0853 0.23447-0.0426 0 0-0.66077 0.5542zm-0.17052 3.1546q-0.2771-0.10657-0.23447-1.556 0.021315-0.8526 0.12789-0.8526 0.04263 0 0.085261 0.0639 0.04263 0.0426 0.063945 1.0018 0 0.0853 0 0.23447 0 0.1492 0 0.23446 0.021315 0.0853 0.021315 0.19184 0 0.10658 0 0.17052 0 0.064 0 0.12789 0.021315 0.0426 0.04263 0.0853 0.021315 0.0213 0.04263 0.0213 0.10658 0 0.55419-0.53288 0.53288-0.63945 0.63945-0.63945 0.21315 0-0.31973 0.72471-0.66077 0.89523-1.0231 0.72471z"/>
   <path d="m12.081 216.36 0.21315-0.14921q-0.02131-0.0213-0.17052 0.064-0.25578 0.12789-0.29841 0.23446 0.02131 0 0.25578-0.1492zm-0.66077 0.63945q-0.40499 0.19184-0.51156-0.0639-0.08526-0.19184 0.25578-0.44762l0.23447-0.17052-0.23447-0.0213q-0.93786-0.0853-0.51156-0.95918 0.17052-0.31973 0.55419-0.63945 0.38367-0.34104 0.76734-0.46894 0.36236-0.12789 0.36236 0.064 0 0.0213-0.06395 0.0853-0.04263 0.064-0.10658 0.10658-0.06395 0.0426-0.06395 0.0213-0.04263-0.0853-0.49025 0.21315-0.49025 0.34104-0.7034 0.74603-0.14921 0.34104-0.06395 0.44762 0.08526 0.10658 0.57551 0.12789l0.29841 0.0213 0.40499-0.21316q0.29841-0.1492 0.66077-0.27709 0.36236-0.14921 0.38367-0.12789 0.02132 0.0213-0.10658 0.10657-0.02131 0.0213-0.21315 0.17052-0.29841 0.23447-0.25578 0.2771 0.19184 0.0853-0.06395 0.29841-0.29841 0.25578-1.1084 0.7034z"/>
   <path d="m13.729 216.34q0.14921-0.12789 0.4263-0.34104 0.83129-0.72471 1.2576-0.8526 0.12789-0.0426 0.12789-0.10658 0-0.10658-0.25578-0.12789-0.23447-0.0213-0.34104 0.0213-0.2771 0.10658-0.74603 0.59683-0.46893 0.46893-0.63945 0.80997-0.06395 0.12789-0.04263 0.12789 0.04263 0 0.21315-0.12789zm-0.2771 0.40499q-0.38367 0-0.10658-0.55419 0.31973-0.66077 1.1723-1.3002 0.38367-0.27709 0.72471-0.23446 0.34104 0.0426 0.34104 0.36235 0 0.10658 0.06395 0.17053 0.06395 0.0426 0.08526 0.44761 0 0.0213 0 0.064 0 0.21315 0 0.31973 0.02132 0.10657 0.04263 0.23446t0.06395 0.19184q0.06395 0.0639 0.14921 0.0426 0.2771-0.0213 0.95918-0.40499 0.2771-0.14921 0.76734-0.38367 0.49025-0.25578 0.51156-0.23447 0 0-0.06395 0.0426-0.04263 0.0426-0.12789 0.12789-0.08526 0.064-0.19184 0.14921-1.961 1.4921-2.3233 0.76734-0.06395-0.0853-0.08526-0.38367 0-0.29841 0-0.49025 0.02131-0.21315-0.02131-0.25578 0 0-0.2771 0.17052-0.40499 0.23447-1.0231 0.78866-0.25578 0.21315-0.40499 0.29841-0.12789 0.064-0.25578 0.064z"/>
   <path d="m26.676 220.95q0.02132-3.6236 0.74603-6.629 0.08526-0.29842 0.06395-0.31973 0 0-0.04263 0.0639-0.04263 0.0426-0.12789 0.12789-0.06395 0.0853-0.14921 0.19184-1.8118 2.2381-2.7496 3.2186-0.91655 0.9805-1.4494 1.215-0.57551 0.25578-0.93786-0.14921t-0.40499-1.1297q-0.04263-0.7034 0.06395-1.4707 0.29841-1.8544 1.5134-4.3483 1.1936-2.4939 2.4726-3.1333 0.23447-0.10658 0.51156-0.10658 0.68208 0 0.7034 0.57551 0.04263 0.68208-0.76734 2.8136-0.38367 0.98049-0.51156 1.492-0.10658 0.40499-0.19184 0.40499-0.04263 0-0.06394-0.10657-0.02132-0.12789 0-0.31973 0.04263-0.19184 0.10658-0.40499 0.06395-0.25578 0.36236-1.0018 0.74603-1.961 0.76734-2.6431 0.02132-0.34105-0.04263-0.40499-0.21315-0.2771-0.68208-0.0853-0.31973 0.1492-0.76734 0.59682-0.44762 0.4263-0.80998 1.0018-0.68208 1.0231-1.3429 2.6218-0.66077 1.5986-0.87392 2.7283-0.34104 1.8118 0.08526 2.5365 0.12789 0.23446 0.40499 0.23446 0.40499 0 1.2576-0.87392 0.87392-0.8526 2.5152-2.8562 0.61814-0.74603 0.91655-1.0871 0.29841-0.36236 0.29841-0.38368 0 0-0.06395 0-0.04263-0.0213-0.12789-0.0213-0.08526 0-0.21315 0-0.29841 0.0213-0.36236 0.0213-0.06395-0.0213-0.06395-0.0639 0-0.17052 1.1297-0.29841 1.151-0.14921 1.8757-0.17052 0.36236 0 0.49025 0.0639 0.12789 0.0426 0.12789 0.064 0 0.0213-0.12789 0.0853-0.12789 0.0639-0.9805 0.1492-0.8526 0.064-1.1297 0.10658 0 0.31973-0.14921 0.89523-0.91655 3.6023-0.83129 7.375 0.02132 0.76734 0 0.80997-0.08526 0.17052-0.2771-0.0213-0.10658-0.10658-0.1492-0.31973-0.02132-0.21315-0.02132-1.0444z"/>
   <path d="m30.486 215.98q0.06395-0.27709 0.06395-0.89523t-0.02132-0.9805q-0.02132-0.38367 0.04263-0.53287 0.12789-0.10658 0.17052 0.23446 0.02132 0.17052 0.04263 0.66077l0.04263 0.68209q0.49025-0.83129 1.0444-1.3429 0.14921-0.1492 0.38367-0.29841 0.23447-0.14921 0.29841-0.14921 0.06394 0 0.08526 0.064 0.02132 0.0426-0.04263 0.12789-0.04263 0.064-0.51156 0.55419-0.59682 0.66077-0.95918 1.3855-0.2771 0.55419-0.2771 0.98049 0 0.25578-0.04263 0.34104-0.04263 0.064-0.14921 0.064-0.36236 0-0.17052-0.89524z"/>
   <path d="m33.459 215.92q0.76734-0.80998 0.76734-0.95918 0-0.0213-0.08526-0.0213-0.25578 0-0.55419 0.40499-0.2771 0.40499-0.31973 0.7034-0.02132 0.064 0 0.064 0.02132-0.0213 0.19184-0.19184zm-0.10658 0.72471q-0.23447 0-0.29841-0.0639-0.06394-0.0853-0.06394-0.31973 0-0.44762 0.36236-1.0018 0.38367-0.55419 0.80997-0.55419 0.76734 0-0.51156 1.3428-0.2771 0.29841-0.23447 0.29841 0.17052 0 1.3215-0.51156 0.7034-0.29841 1.0658-0.34104h0.17052q-0.17052 0.17052-1.1936 0.66077-1.0018 0.49024-1.4281 0.49024z"/>
   <path d="m36.445 215.92q0.76734-0.80998 0.76734-0.95918 0-0.0213-0.08526-0.0213-0.25578 0-0.55419 0.40499-0.2771 0.40499-0.31973 0.7034-0.02132 0.064 0 0.064 0.02132-0.0213 0.19184-0.19184zm-0.10658 0.72471q-0.23447 0-0.29841-0.0639-0.06394-0.0853-0.06394-0.31973 0-0.44762 0.36236-1.0018 0.38367-0.55419 0.80997-0.55419 0.76734 0-0.51156 1.3428-0.2771 0.29841-0.23447 0.29841 0.17052 0 1.3215-0.51156 0.7034-0.29841 1.0658-0.34104h0.17052q-0.17052 0.17052-1.1936 0.66077-1.0018 0.49024-1.4281 0.49024z"/>
   <path d="m39.58 216.98q-0.14921 0.0853-0.21315 0-0.06394-0.0853-0.08526-0.25579-0.12789-0.78866-0.12789-1.4281 0-0.25578-0.02132-0.57551l-0.08526 0.0853-0.06394 0.0213q0.02132-0.0426 0.10658-0.12789 0.21315-0.23447 0.2771 0.0639 0.02132 0.14921 0.04263 0.42631 0.06395 1.0231 0.10658 1.2576 0 0.0853 0.12789-0.12789 0.04263-0.0853 0.17052-0.31973 0.44762-0.89524 0.66077-1.0658 0.12789-0.0853 0.21315-0.0213 0.10658 0.0639 0.12789 0.25578 0.12789 0.91655 0.36236 0.9805 0.10658 0.0213 0.38367-0.10658 0.44762-0.23447 0.44762-0.0853 0 0.0639-0.06395 0.17052-0.19184 0.40499-0.68208 0.40499-0.29841 0-0.46893-0.19184-0.14921-0.21315-0.23447-0.7034-0.04263-0.27709-0.06395-0.29841-0.02132-0.0213-0.10658 0.12789-0.08526 0.12789-0.21315 0.36236-0.10658 0.21315-0.21315 0.46893-0.10658 0.23447-0.23447 0.4263-0.10658 0.19184-0.14921 0.25579z"/>
   <path d="m42.999 215.92q0.76734-0.80998 0.76734-0.95918 0-0.0213-0.08526-0.0213-0.25578 0-0.55419 0.40499-0.2771 0.40499-0.31973 0.7034-0.02132 0.064 0 0.064 0.02132-0.0213 0.19184-0.19184zm-0.10658 0.72471q-0.23447 0-0.29841-0.0639-0.06394-0.0853-0.06394-0.31973 0-0.44762 0.36236-1.0018 0.38367-0.55419 0.80998-0.55419 0.76734 0-0.51156 1.3428-0.2771 0.29841-0.23447 0.29841 0.17052 0 1.3215-0.51156 0.7034-0.29841 1.0658-0.34104h0.17052q-0.17052 0.17052-1.1936 0.66077-1.0018 0.49024-1.4281 0.49024z"/>
  </g>
 </g>
</svg>
